<svg id="Layer_1" data-name="Layer 1" xmlns="http://www.w3.org/2000/svg" viewBox="0 0 293.39 253.44">

<style type="text/css">
	path{fill:#10284d;}
	
    @media (prefers-color-scheme: dark) {
      path {
        fill: #fff;
      }
    }
</style>

<path d="M3.3,275.64c17.29-29.75,32.89-57.1,49.2-84,2-3.37,7.86-6.16,12-6.26,24.7-.59,49.43-.12,74.15-.38,28.12-.29,38.73-19.21,24.68-43.62-4-6.91-8.07-13.76-13.27-22.61-9.05,15.44-16.69,29.49-25.47,42.78-2.47,3.74-8.19,7.15-12.62,7.43-14.73.92-29.55.35-46.86.35L149.94,22.75c16.64,28.57,32.22,55.25,47.7,82,4.05,7,8,14.06,11.64,21.29,21.63,43.2,5.55,85-40.66,100.09-16.09,5.24-34.61,6.54-51.54,4.87-24.54-2.42-40.85,4.5-48.82,28.36C63.64,273.2,54,277.43,39.78,275.89,28.49,274.67,17,275.64,3.3,275.64Z" transform="translate(-3.3 -22.75)"/>

<path d="M296.7,275.6c-18.49,0-34.56.23-50.6-.23-2.69-.08-6.31-2.58-7.77-5-9.43-15.62-18.37-31.53-26-44.73,9.2-17.65,17.34-33.27,26.19-50.23Z" transform="translate(-3.3 -22.75)"/></svg>